{
    "asset": {
        "version": "2.0",
        "generator": "Open Asset Import Library (assimp v5.3.0)"
    },
    "extensionsUsed": [
        "KHR_materials_volume",
        "FB_ngon_encoding"
    ],
    "accessors": [
        {
            "bufferView": 0,
            "byteOffset": 0,
            "componentType": 5126,
            "count": 4,
            "type": "VEC3",
            "max": [
                1.0,
                1.0000001192092896,
                1.3435885648505065e-7
            ],
            "min": [
                -1.0,
                -1.0000001192092896,
                -1.3435885648505065e-7
            ]
        },
        {
            "bufferView": 1,
            "byteOffset": 0,
            "componentType": 5126,
            "count": 4,
            "type": "VEC3",
            "max": [
                0.0,
                1.3435885648505065e-7,
                1.0
            ],
            "min": [
                -6.202443649015819e-15,
                1.3435884227419593e-7,
                1.0
            ]
        },
        {
            "bufferView": 2,
            "byteOffset": 0,
            "componentType": 5126,
            "count": 4,
            "type": "VEC2",
            "max": [
                1.0,
                1.0
            ],
            "min": [
                0.0,
                0.0
            ]
        },
        {
            "bufferView": 3,
            "byteOffset": 0,
            "componentType": 5126,
            "count": 4,
            "type": "VEC4",
            "max": [
                1.0,
                1.0,
                1.0,
                1.0
            ],
            "min": [
                1.0,
                1.0,
                1.0,
                1.0
            ]
        },
        {
            "bufferView": 4,
            "byteOffset": 0,
            "componentType": 5125,
            "count": 6,
            "type": "SCALAR",
            "max": [
                3
            ],
            "min": [
                0
            ]
        },
        {
            "bufferView": 5,
            "byteOffset": 0,
            "componentType": 5123,
            "count": 4,
            "type": "VEC4",
            "max": [
                5,
                3,
                3,
                7
            ],
            "min": [
                0,
                0,
                0,
                2
            ]
        },
        {
            "bufferView": 6,
            "byteOffset": 0,
            "componentType": 5126,
            "count": 4,
            "type": "VEC4",
            "max": [
                0.499026358127594,
                0.40362295508384707,
                0.2431304156780243,
                0.221574604511261
            ],
            "min": [
                0.21567927300930024,
                0.20686699450016023,
                0.05658309534192085,
                0.04076758027076721
            ]
        },
        {
            "bufferView": 7,
            "byteOffset": 0,
            "componentType": 5126,
            "count": 10,
            "type": "MAT4",
            "max": [
                1.0,
                2.295087651353546e-16,
                1.514955449977151e-8,
                0.0,
                -1.514955449977151e-8,
                -1.1920928955078126e-7,
                1.0,
                0.0,
                2.035476499943076e-15,
                -1.0,
                -1.3435884227419593e-7,
                0.0,
                0.0,
                0.0,
                0.0,
                1.0
            ],
            "min": [
                1.0,
                2.295087651353546e-16,
                1.514955449977151e-8,
                0.0,
                -1.514955449977151e-8,
                -1.1920928955078126e-7,
                1.0,
                0.0,
                2.035476499943076e-15,
                -1.0,
                -1.3435884227419593e-7,
                0.0,
                0.0,
                0.0,
                0.0,
                1.0
            ]
        }
    ],
    "buffers": [
        {
            "byteLength": 984,
            "uri": "quad_four_out.bin"
        }
    ],
    "bufferViews": [
        {
            "buffer": 0,
            "byteOffset": 0,
            "byteLength": 48,
            "target": 34962
        },
        {
            "buffer": 0,
            "byteOffset": 48,
            "byteLength": 48,
            "target": 34962
        },
        {
            "buffer": 0,
            "byteOffset": 96,
            "byteLength": 32,
            "target": 34962
        },
        {
            "buffer": 0,
            "byteOffset": 128,
            "byteLength": 64,
            "target": 34962
        },
        {
            "buffer": 0,
            "byteOffset": 192,
            "byteLength": 24,
            "target": 34963
        },
        {
            "buffer": 0,
            "byteOffset": 216,
            "byteLength": 32
        },
        {
            "buffer": 0,
            "byteOffset": 280,
            "byteLength": 64
        },
        {
            "buffer": 0,
            "byteOffset": 344,
            "byteLength": 640
        }
    ],
    "materials": [
        {
            "name": "DefaultMaterial",
            "pbrMetallicRoughness": {
                "baseColorFactor": [
                    0.800000011920929,
                    0.800000011920929,
                    0.800000011920929,
                    1.0
                ],
                "metallicFactor": 0.0
            }
        },
        {
            "name": "material"
        }
    ],
    "meshes": [
        {
            "name": "Plane",
            "primitives": [
                {
                    "mode": 4,
                    "material": 0,
                    "indices": 4,
                    "attributes": {
                        "POSITION": 0,
                        "NORMAL": 1,
                        "TEXCOORD_0": 2,
                        "COLOR_0": 3,
                        "JOINTS_0": 5,
                        "WEIGHTS_0": 6
                    }
                }
            ]
        }
    ],
    "nodes": [
        {
            "name": "RootNode",
            "children": [
                1,
                22
            ]
        },
        {
            "name": "Armature",
            "matrix": [
                100.0,
                0.0,
                0.0,
                0.0,
                0.0,
                -0.000016292067812173629,
                -100.0,
                0.0,
                0.0,
                100.0,
                -0.000016292067812173629,
                0.0,
                0.0,
                0.0,
                0.0,
                1.0
            ],
            "children": [
                2,
                4,
                6,
                8,
                10,
                12,
                14,
                16,
                18,
                20
            ],
            "extras": {
                "UserProperties": "",
                "IsNull": true,
                "DefaultAttributeIndex": 0,
                "InheritType": 1
            }
        },
        {
            "name": "Bone.000",
            "matrix": [
                1.0,
                -1.5149550947057834e-8,
                0.0,
                0.0,
                -4.274142227888829e-15,
                -2.821299744937278e-7,
                -1.0,
                0.0,
                1.5149550947057834e-8,
                1.0,
                -2.821299744937278e-7,
                0.0,
                0.0,
                0.0,
                0.0,
                1.0
            ],
            "children": [
                3
            ],
            "extras": {
                "UserProperties": "",
                "IsNull": false,
                "DefaultAttributeIndex": 0,
                "InheritType": 1
            }
        },
        {
            "name": "Bone.000_end",
            "matrix": [
                1.0,
                0.0,
                0.0,
                0.0,
                0.0,
                1.0,
                0.0,
                0.0,
                0.0,
                0.0,
                1.0,
                0.0,
                0.0,
                1.0,
                0.0,
                1.0
            ],
            "extras": {
                "UserProperties": "",
                "IsNull": false,
                "DefaultAttributeIndex": 0,
                "InheritType": 1
            }
        },
        {
            "name": "Bone.001",
            "matrix": [
                1.0,
                -1.5149550947057834e-8,
                0.0,
                0.0,
                -4.274142227888829e-15,
                -2.821299744937278e-7,
                -1.0,
                0.0,
                1.5149550947057834e-8,
                1.0,
                -2.821299744937278e-7,
                0.0,
                0.0,
                0.0,
                0.0,
                1.0
            ],
            "children": [
                5
            ],
            "extras": {
                "UserProperties": "",
                "IsNull": false,
                "DefaultAttributeIndex": 0,
                "InheritType": 1
            }
        },
        {
            "name": "Bone.001_end",
            "matrix": [
                1.0,
                0.0,
                0.0,
                0.0,
                0.0,
                1.0,
                0.0,
                0.0,
                0.0,
                0.0,
                1.0,
                0.0,
                0.0,
                1.0,
                0.0,
                1.0
            ],
            "extras": {
                "UserProperties": "",
                "IsNull": false,
                "DefaultAttributeIndex": 0,
                "InheritType": 1
            }
        },
        {
            "name": "Bone.002",
            "matrix": [
                1.0,
                -1.5149550947057834e-8,
                0.0,
                0.0,
                -4.274142227888829e-15,
                -2.821299744937278e-7,
                -1.0,
                0.0,
                1.5149550947057834e-8,
                1.0,
                -2.821299744937278e-7,
                0.0,
                0.0,
                0.0,
                0.0,
                1.0
            ],
            "children": [
                7
            ],
            "extras": {
                "UserProperties": "",
                "IsNull": false,
                "DefaultAttributeIndex": 0,
                "InheritType": 1
            }
        },
        {
            "name": "Bone.002_end",
            "matrix": [
                1.0,
                0.0,
                0.0,
                0.0,
                0.0,
                1.0,
                0.0,
                0.0,
                0.0,
                0.0,
                1.0,
                0.0,
                0.0,
                1.0,
                0.0,
                1.0
            ],
            "extras": {
                "UserProperties": "",
                "IsNull": false,
                "DefaultAttributeIndex": 0,
                "InheritType": 1
            }
        },
        {
            "name": "Bone.003",
            "matrix": [
                1.0,
                -1.5149550947057834e-8,
                0.0,
                0.0,
                -4.274142227888829e-15,
                -2.821299744937278e-7,
                -1.0,
                0.0,
                1.5149550947057834e-8,
                1.0,
                -2.821299744937278e-7,
                0.0,
                0.0,
                0.0,
                0.0,
                1.0
            ],
            "children": [
                9
            ],
            "extras": {
                "UserProperties": "",
                "IsNull": false,
                "DefaultAttributeIndex": 0,
                "InheritType": 1
            }
        },
        {
            "name": "Bone.003_end",
            "matrix": [
                1.0,
                0.0,
                0.0,
                0.0,
                0.0,
                1.0,
                0.0,
                0.0,
                0.0,
                0.0,
                1.0,
                0.0,
                0.0,
                1.0,
                0.0,
                1.0
            ],
            "extras": {
                "UserProperties": "",
                "IsNull": false,
                "DefaultAttributeIndex": 0,
                "InheritType": 1
            }
        },
        {
            "name": "Bone.009",
            "matrix": [
                1.0,
                -1.5149550947057834e-8,
                0.0,
                0.0,
                -4.274142227888829e-15,
                -2.821299744937278e-7,
                -1.0,
                0.0,
                1.5149550947057834e-8,
                1.0,
                -2.821299744937278e-7,
                0.0,
                0.0,
                0.0,
                0.0,
                1.0
            ],
            "children": [
                11
            ],
            "extras": {
                "UserProperties": "",
                "IsNull": false,
                "DefaultAttributeIndex": 0,
                "InheritType": 1
            }
        },
        {
            "name": "Bone.009_end",
            "matrix": [
                1.0,
                0.0,
                0.0,
                0.0,
                0.0,
                1.0,
                0.0,
                0.0,
                0.0,
                0.0,
                1.0,
                0.0,
                0.0,
                1.0,
                0.0,
                1.0
            ],
            "extras": {
                "UserProperties": "",
                "IsNull": false,
                "DefaultAttributeIndex": 0,
                "InheritType": 1
            }
        },
        {
            "name": "Bone.004",
            "matrix": [
                1.0,
                -1.5149550947057834e-8,
                0.0,
                0.0,
                -4.274142227888829e-15,
                -2.821299744937278e-7,
                -1.0,
                0.0,
                1.5149550947057834e-8,
                1.0,
                -2.821299744937278e-7,
                0.0,
                0.0,
                0.0,
                0.0,
                1.0
            ],
            "children": [
                13
            ],
            "extras": {
                "UserProperties": "",
                "IsNull": false,
                "DefaultAttributeIndex": 0,
                "InheritType": 1
            }
        },
        {
            "name": "Bone.004_end",
            "matrix": [
                1.0,
                0.0,
                0.0,
                0.0,
                0.0,
                1.0,
                0.0,
                0.0,
                0.0,
                0.0,
                1.0,
                0.0,
                0.0,
                1.0,
                0.0,
                1.0
            ],
            "extras": {
                "UserProperties": "",
                "IsNull": false,
                "DefaultAttributeIndex": 0,
                "InheritType": 1
            }
        },
        {
            "name": "Bone.005",
            "matrix": [
                1.0,
                -1.5149550947057834e-8,
                0.0,
                0.0,
                -4.274142227888829e-15,
                -2.821299744937278e-7,
                -1.0,
                0.0,
                1.5149550947057834e-8,
                1.0,
                -2.821299744937278e-7,
                0.0,
                0.0,
                0.0,
                0.0,
                1.0
            ],
            "children": [
                15
            ],
            "extras": {
                "UserProperties": "",
                "IsNull": false,
                "DefaultAttributeIndex": 0,
                "InheritType": 1
            }
        },
        {
            "name": "Bone.005_end",
            "matrix": [
                1.0,
                0.0,
                0.0,
                0.0,
                0.0,
                1.0,
                0.0,
                0.0,
                0.0,
                0.0,
                1.0,
                0.0,
                0.0,
                1.0,
                0.0,
                1.0
            ],
            "extras": {
                "UserProperties": "",
                "IsNull": false,
                "DefaultAttributeIndex": 0,
                "InheritType": 1
            }
        },
        {
            "name": "Bone.006",
            "matrix": [
                1.0,
                -1.5149550947057834e-8,
                0.0,
                0.0,
                -4.274142227888829e-15,
                -2.821299744937278e-7,
                -1.0,
                0.0,
                1.5149550947057834e-8,
                1.0,
                -2.821299744937278e-7,
                0.0,
                0.0,
                0.0,
                0.0,
                1.0
            ],
            "children": [
                17
            ],
            "extras": {
                "UserProperties": "",
                "IsNull": false,
                "DefaultAttributeIndex": 0,
                "InheritType": 1
            }
        },
        {
            "name": "Bone.006_end",
            "matrix": [
                1.0,
                0.0,
                0.0,
                0.0,
                0.0,
                1.0,
                0.0,
                0.0,
                0.0,
                0.0,
                1.0,
                0.0,
                0.0,
                1.0,
                0.0,
                1.0
            ],
            "extras": {
                "UserProperties": "",
                "IsNull": false,
                "DefaultAttributeIndex": 0,
                "InheritType": 1
            }
        },
        {
            "name": "Bone.007",
            "matrix": [
                1.0,
                -1.5149550947057834e-8,
                0.0,
                0.0,
                -4.274142227888829e-15,
                -2.821299744937278e-7,
                -1.0,
                0.0,
                1.5149550947057834e-8,
                1.0,
                -2.821299744937278e-7,
                0.0,
                0.0,
                0.0,
                0.0,
                1.0
            ],
            "children": [
                19
            ],
            "extras": {
                "UserProperties": "",
                "IsNull": false,
                "DefaultAttributeIndex": 0,
                "InheritType": 1
            }
        },
        {
            "name": "Bone.007_end",
            "matrix": [
                1.0,
                0.0,
                0.0,
                0.0,
                0.0,
                1.0,
                0.0,
                0.0,
                0.0,
                0.0,
                1.0,
                0.0,
                0.0,
                1.0,
                0.0,
                1.0
            ],
            "extras": {
                "UserProperties": "",
                "IsNull": false,
                "DefaultAttributeIndex": 0,
                "InheritType": 1
            }
        },
        {
            "name": "Bone.008",
            "matrix": [
                1.0,
                -1.5149550947057834e-8,
                0.0,
                0.0,
                -4.274142227888829e-15,
                -2.821299744937278e-7,
                -1.0,
                0.0,
                1.5149550947057834e-8,
                1.0,
                -2.821299744937278e-7,
                0.0,
                0.0,
                0.0,
                0.0,
                1.0
            ],
            "children": [
                21
            ],
            "extras": {
                "UserProperties": "",
                "IsNull": false,
                "DefaultAttributeIndex": 0,
                "InheritType": 1
            }
        },
        {
            "name": "Bone.008_end",
            "matrix": [
                1.0,
                0.0,
                0.0,
                0.0,
                0.0,
                1.0,
                0.0,
                0.0,
                0.0,
                0.0,
                1.0,
                0.0,
                0.0,
                1.0,
                0.0,
                1.0
            ],
            "extras": {
                "UserProperties": "",
                "IsNull": false,
                "DefaultAttributeIndex": 0,
                "InheritType": 1
            }
        },
        {
            "name": "Plane",
            "matrix": [
                100.0,
                0.0,
                0.0,
                0.0,
                0.0,
                -0.000016292067812173629,
                -100.0,
                0.0,
                0.0,
                100.0,
                -0.000016292067812173629,
                0.0,
                0.0,
                0.0,
                0.0,
                1.0
            ],
            "mesh": 0,
            "skin": 0,
            "extras": {
                "UserProperties": "",
                "IsNull": false,
                "DefaultAttributeIndex": 0,
                "InheritType": 1
            }
        }
    ],
    "scenes": [
        {
            "nodes": [
                0
            ]
        }
    ],
    "skins": [
        {
            "name": "skin",
            "joints": [
                2,
                4,
                6,
                8,
                10,
                12,
                14,
                16,
                18,
                20
            ],
            "inverseBindMatrices": 7
        }
    ],
    "scene": 0
}